<?xml version="1.0" encoding="utf-8"?>
<!-- Generator: Adobe Illustrator 16.0.0, SVG Export Plug-In . SVG Version: 6.00 Build 0)  -->
<!DOCTYPE svg PUBLIC "-//W3C//DTD SVG 1.1//EN" "http://www.w3.org/Graphics/SVG/1.1/DTD/svg11.dtd">
<svg version="1.1" id="Layer_1" xmlns="http://www.w3.org/2000/svg" xmlns:xlink="http://www.w3.org/1999/xlink" x="0px" y="0px"
	 width="283.46px" height="283.46px" viewBox="0 0 283.46 283.46" enable-background="new 0 0 283.46 283.46" xml:space="preserve">
<g>
	<g>
		<path fill="#06ABDD" d="M141.729,7.73C67.724,7.73,7.73,67.724,7.73,141.73c0,74.006,59.993,134,133.999,134
			c74.007,0,134-59.994,134-134C275.729,67.724,215.736,7.73,141.729,7.73z M141.729,239.123c-53.787,0-97.391-43.605-97.391-97.393
			s43.604-97.392,97.391-97.392c53.788,0,97.393,43.604,97.393,97.392S195.518,239.123,141.729,239.123z"/>
		<circle fill="#FEFEFE" cx="141.729" cy="141.731" r="97.392"/>
	</g>
	<g>
		<path fill="none" d="M119.194,110.339c-1.169,0.002-2.113,1.035-2.113,1.035s0.949,1.026,2.118,1.024
			c1.168-0.003,2.112-1.035,2.112-1.035S120.362,110.336,119.194,110.339z"/>
		<path fill="none" d="M150.046,119.794v2.75l0.004-2.739C150.05,119.806,150.048,119.801,150.046,119.794z"/>
		<path fill="none" d="M150.046,153.961v0.186C150.058,154.127,150.079,154.064,150.046,153.961z"/>
		<path fill="none" d="M135.697,201.215v-7.594l-0.005,7.525C135.692,201.146,135.692,201.17,135.697,201.215z"/>
		<g>
			<path fill="#030102" d="M135.697,201.215c0.058,0.428,0.71,2.764,8.106,4.68c2.024,0.523,4.2,0.336,6.242-0.174v-10.604
				l-0.094,0.055l-0.03-9.615c0,0.018,0.985-1.346-9.881-4.318c-1.606-0.441-3.05-0.914-4.344-1.418v8.004l0.005-0.002l-0.005,5.799
				V201.215z"/>
			<path fill="#030102" d="M135.697,167.908c0.84,1.621,8.84,3.559,14.349,5.104v-17.063c-0.003-1.064-0.006-1.799-0.006-1.795
				l0.006-0.008v-0.186c-0.148-0.471-1.424-1.811-9.888-4.127c-1.655-0.453-3.136-0.941-4.461-1.461V167.908z"/>
			<path fill="#030102" d="M150.046,119.794c-0.088-0.251-2.2-6.028-8.212-3.927c-2.749,0.96-4.502,2.223-6.137,2.939v4.171h0.003
				c0,0,0.051,11.039,0.041,13.253c-0.007,1.664,8.486,3.718,14.305,5.347v-9.194l-0.016,0.006l0.016-9.845V119.794z"/>
			<path fill="#030102" d="M150.046,210.648c-2.203,0.721-4.966,1.059-8.417,0.715c-2.294-0.229-4.264-0.734-5.932-1.451
				c-0.184-0.08-0.363-0.162-0.54-0.246l-6.712,17.633h28.853l-6.448-16.941C150.591,210.461,150.323,210.557,150.046,210.648z"/>
			<path fill="#030102" d="M135.697,110.396v0.346c0.615-0.097,1.252-0.212,1.9-0.346c1.819-0.373,3.716-0.895,5.383-1.616
				c3.533-1.53,7.115-1.527,9.395-0.928l7.432-8.118h-33.87L135.697,110.396z"/>
			<polygon fill="#030102" points="159.807,89.934 125.937,89.934 108.942,89.934 108.942,95.579 125.937,95.579 159.807,95.579 
				176.802,95.579 176.802,89.934 			"/>
			<polygon fill="#030102" points="151.211,81.388 149.203,81.388 136.541,81.388 134.533,81.388 132.454,81.388 121.81,81.388 
				120.469,81.388 120.469,87.738 165.274,87.738 165.274,81.388 163.935,81.388 153.289,81.388 			"/>
			<path fill="#030102" d="M130.336,79.114c-2.021-2.649-3.223-5.958-3.223-9.546c0-4.796,2.145-9.087,5.524-11.978
				c-1.394-0.506-2.898-0.782-4.467-0.782c-7.242,0-13.112,5.871-13.112,13.112c0,3.582,1.437,6.826,3.765,9.194H130.336z"/>
			<path fill="#030102" d="M158.63,69.568c0,3.588-1.201,6.896-3.222,9.546h11.513c2.326-2.368,3.765-5.612,3.765-9.194
				c0-7.242-5.87-13.112-13.113-13.112c-1.568,0-3.073,0.276-4.467,0.782C156.484,60.481,158.63,64.772,158.63,69.568z"/>
			<path fill="#030102" d="M133.46,79.114h4.059h10.707h4.057c2.467-2.432,3.996-5.81,3.996-9.546c0-4.46-2.179-8.409-5.529-10.846
				c-2.212-1.609-4.933-2.561-7.876-2.561c-2.945,0-5.666,0.951-7.878,2.561c-3.351,2.438-5.53,6.386-5.53,10.846
				C129.465,73.304,130.994,76.682,133.46,79.114z"/>
			<path fill="#030102" d="M111.495,113.689c-1.274,0.934-4.837,2.868-4.837,2.868l2.662-1.228l0.245,2.09l0.037-2.194l2.979-1.897
				c-0.086-0.125-0.16-0.241-0.226-0.348C112.198,113.134,111.93,113.372,111.495,113.689z"/>
			<path fill="#E04332" d="M154.212,142.886c-0.965-0.386-2.449-0.829-4.166-1.309c-5.818-1.628-14.312-3.683-14.305-5.347
				c0.01-2.214-0.041-13.253-0.041-13.253h-0.003c-0.351-0.104-21.876,16.807,0,25.395c1.325,0.52,2.806,1.008,4.461,1.461
				c8.464,2.316,9.739,3.656,9.888,4.127c0.033,0.104,0.012,0.166,0,0.186l-0.006,0.008c0-0.004,0.003,0.73,0.006,1.795
				c0.009,2.783,0.024,7.822,0.024,7.822S173.12,150.443,154.212,142.886z"/>
			<path fill="#E04332" d="M154.095,174.287c-0.943-0.377-2.383-0.809-4.049-1.275c-5.509-1.545-13.509-3.482-14.349-5.104
				c-0.047-0.094-0.073-0.186-0.073-0.277c0.01-2.213-0.041-13.252-0.041-13.252c-0.297-0.148-21.987,16.855,0.114,25.441
				c1.294,0.504,2.737,0.977,4.344,1.418c10.866,2.973,9.881,4.336,9.881,4.318l0.03,9.615l0.094-0.055
				C151.616,194.184,172.296,181.561,154.095,174.287z"/>
			<path fill="#E04332" d="M143.804,205.895c-7.396-1.916-8.049-4.252-8.106-4.68l-0.005-0.068l0.005-7.525l0.005-5.799
				l-0.005,0.002c-0.089,0.025-3.158,0.973-5.418,4.779c-3.453,5.82-2.437,13.576,4.878,17.063c0.177,0.084,0.356,0.166,0.54,0.246
				c1.668,0.717,3.638,1.223,5.932,1.451c3.451,0.344,6.214,0.006,8.417-0.715c0.277-0.092,0.545-0.188,0.804-0.291
				c6.506-2.555,7.655-8.521,7.655-8.521s-3.895,2.746-8.459,3.885C148.004,206.23,145.828,206.418,143.804,205.895z"/>
			<path fill="#E04332" d="M135.697,118.807c1.635-0.716,3.388-1.979,6.137-2.939c6.012-2.101,8.124,3.676,8.212,3.927l0.004,0.012
				l-0.004,2.739l-0.016,9.845l0.016-0.006c0.42-0.179,10.452-4.513,11.517-10.306c1.764-9.604-7.498-13.534-7.498-13.534
				c-0.414-0.269-0.99-0.507-1.689-0.692c-2.279-0.599-5.861-0.602-9.395,0.928c-1.667,0.721-3.563,1.243-5.383,1.616
				c-0.648,0.134-1.285,0.249-1.9,0.346c-2.434,0.385-4.49,0.508-5.301,0.508c-1.587,0-4.821-1.441-6.527-2.559
				c-1.705-1.116-3.733-0.881-6.82-0.265c-3.087,0.618-5.116,3.676-5.116,3.676s0.072,0.301,0.424,0.878
				c0.065,0.107,0.14,0.223,0.226,0.348c0.486,0.712,1.325,1.723,2.762,3.008c3.058,2.734,4.675,1.235,5.556,0.97
				c0.883-0.265,2.029-1.881,4.146-1.881s5.615,3.88,8.203,3.939C134.106,119.385,134.888,119.162,135.697,118.807z
				 M119.199,112.397c-1.169,0.002-2.118-1.024-2.118-1.024s0.944-1.032,2.113-1.035c1.168-0.003,2.117,1.024,2.117,1.024
				S120.367,112.395,119.199,112.397z"/>
		</g>
	</g>
	<g>
		<g>
			<path fill="#FDFCFD" d="M49.488,195.293l-15.342,7.76l-1.567-3.098l6.813-3.445l-9.979-2.813l-2.106-4.166l8.897,2.756
				l6.285-10.828l2.027,4.008l-5.066,7.859l3.834,1.215l4.636-2.346L49.488,195.293z"/>
			<path fill="#FDFCFD" d="M42.196,180.281l-16.337,5.357l-3.972-12.113l2.763-0.906l2.891,8.814l3.622-1.188l-2.689-8.203
				l2.752-0.902l2.69,8.203l4.446-1.459l-2.993-9.127l2.753-0.902L42.196,180.281z"/>
			<path fill="#FDFCFD" d="M37.553,165.564l-16.958,2.834l-0.557-3.33l10.165-8.834l-11.324,1.893l-0.532-3.182l16.958-2.832
				l0.574,3.434l-9.916,8.684l11.059-1.846L37.553,165.564z"/>
			<path fill="#FDFCFD" d="M34.995,144.518l-7.235,0.117l-9.854,6.457l-0.065-4.068l6.735-4.156l-6.865-3.853l-0.064-3.999
				l10.081,6.159l7.212-0.116L34.995,144.518z"/>
			<path fill="#FDFCFD" d="M36.607,120.349l-0.426,3.752l-4.051,1.051l-0.774,6.829l3.72,1.851l-0.415,3.659l-16.327-8.593
				l0.414-3.648L36.607,120.349z M29.128,125.931l-6.606,1.635l6.077,3.027L29.128,125.931z"/>
			<path fill="#FDFCFD" d="M38.126,113.8l-16.238-5.65l1.707-4.907l12.102,0.907l-10.063-6.765l1.711-4.919l16.238,5.649
				l-1.06,3.045L29.74,96.714l11.66,7.671l-1.098,3.157l-13.899-1.234l12.782,4.447L38.126,113.8z"/>
			<path fill="#FDFCFD" d="M44.865,95.629l-15.104-8.212l6.089-11.2l2.556,1.389l-4.432,8.15l3.349,1.821l4.123-7.583l2.545,1.384
				l-4.123,7.583l4.111,2.234l4.588-8.437l2.545,1.383L44.865,95.629z"/>
			<path fill="#FDFCFD" d="M38.664,71.796l3.831-5.058c0.864-1.14,1.61-1.943,2.238-2.41c0.846-0.625,1.788-0.994,2.827-1.11
				c1.038-0.115,2.109,0.009,3.211,0.373c1.103,0.365,2.296,1.032,3.58,2.005c1.127,0.855,1.993,1.73,2.598,2.63
				c0.737,1.098,1.174,2.199,1.309,3.301c0.104,0.833-0.021,1.759-0.379,2.773c-0.27,0.757-0.791,1.646-1.565,2.669l-3.944,5.207
				L38.664,71.796z M43.079,70.786l9.077,6.876l1.565-2.065c0.585-0.773,0.964-1.364,1.137-1.773c0.228-0.534,0.319-1.05,0.275-1.55
				c-0.043-0.498-0.301-1.074-0.773-1.725c-0.473-0.654-1.238-1.38-2.298-2.183s-1.943-1.325-2.652-1.568
				c-0.708-0.243-1.35-0.316-1.923-0.22c-0.572,0.096-1.11,0.36-1.615,0.792c-0.38,0.321-0.997,1.044-1.851,2.172L43.079,70.786z"/>
			<path fill="#FDFCFD" d="M62.867,69.05L50.36,57.254l2.381-2.526l12.508,11.796L62.867,69.05z"/>
			<path fill="#FDFCFD" d="M71.396,52.392l3.252-1.375c0.827,1.762,1.079,3.38,0.759,4.852c-0.321,1.472-1.184,2.807-2.586,4.005
				c-1.735,1.482-3.669,2.109-5.8,1.878c-2.131-0.232-4.074-1.376-5.831-3.433c-1.859-2.175-2.741-4.346-2.646-6.508
				c0.095-2.165,1.058-4.029,2.889-5.592c1.6-1.367,3.302-2.004,5.108-1.912c1.071,0.051,2.203,0.474,3.395,1.266l-2.08,2.856
				c-0.733-0.545-1.513-0.805-2.338-0.779c-0.826,0.027-1.59,0.34-2.291,0.939c-0.969,0.827-1.458,1.847-1.468,3.059
				c-0.009,1.21,0.652,2.594,1.982,4.152c1.411,1.652,2.715,2.576,3.908,2.77c1.193,0.193,2.266-0.116,3.217-0.928
				c0.702-0.6,1.114-1.338,1.239-2.215C72.23,54.548,71.994,53.537,71.396,52.392z"/>
			<path fill="#FDFCFD" d="M93.193,45.543l-3.218,1.978l-3.323-2.542l-5.854,3.599l0.835,4.07l-3.137,1.928l-3.298-18.153
				l3.127-1.922L93.193,45.543z M84.187,43.096L78.827,38.9l1.362,6.651L84.187,43.096z"/>
			<path fill="#FDFCFD" d="M94.505,45.113l-6.739-15.665l3.189-1.372l5.594,13.004l7.929-3.411l1.145,2.661L94.505,45.113z"/>
			<path fill="#FDFCFD" d="M113.173,37.918l-3.486-16.834l7.154-1.482c1.799-0.374,3.139-0.492,4.016-0.359
				c0.879,0.134,1.643,0.536,2.293,1.208c0.649,0.671,1.078,1.505,1.284,2.5c0.261,1.263,0.105,2.384-0.466,3.361
				c-0.572,0.977-1.575,1.726-3.009,2.245c0.824,0.277,1.528,0.622,2.113,1.036c0.584,0.414,1.418,1.191,2.501,2.333l2.736,2.859
				l-4.065,0.842l-3.217-3.154c-1.145-1.129-1.912-1.831-2.304-2.104c-0.393-0.274-0.782-0.437-1.167-0.488
				c-0.387-0.052-0.97,0.003-1.751,0.165l-0.689,0.143l1.456,7.028L113.173,37.918z M114.561,27.499l2.515-0.521
				c1.631-0.339,2.635-0.618,3.012-0.839c0.378-0.223,0.646-0.525,0.806-0.91c0.16-0.384,0.188-0.83,0.083-1.335
				c-0.117-0.566-0.363-0.991-0.737-1.277c-0.375-0.286-0.847-0.418-1.417-0.396c-0.284,0.019-1.114,0.17-2.493,0.456l-2.652,0.549
				L114.561,27.499z"/>
			<path fill="#FDFCFD" d="M129.591,34.793l-0.928-17.168l12.729-0.688l0.156,2.904l-9.263,0.5l0.205,3.806l8.62-0.465l0.155,2.893
				l-8.618,0.465l0.253,4.673l9.591-0.52l0.156,2.894L129.591,34.793z"/>
			<path fill="#FDFCFD" d="M144.647,28.517l3.394-0.029c0.103,1.147,0.438,2.013,1.011,2.597c0.572,0.586,1.385,0.924,2.436,1.017
				c1.114,0.099,1.974-0.062,2.58-0.483s0.938-0.947,0.994-1.578c0.036-0.405-0.053-0.76-0.264-1.064
				c-0.213-0.306-0.605-0.589-1.179-0.853c-0.393-0.177-1.294-0.508-2.702-0.995c-1.813-0.623-3.064-1.303-3.752-2.04
				c-0.968-1.036-1.391-2.231-1.271-3.586c0.077-0.873,0.396-1.666,0.959-2.383c0.562-0.714,1.325-1.23,2.292-1.544
				c0.966-0.314,2.106-0.413,3.423-0.295c2.149,0.19,3.726,0.805,4.729,1.844c1.002,1.039,1.461,2.348,1.376,3.924l-3.471-0.155
				c-0.07-0.893-0.332-1.554-0.784-1.981c-0.452-0.429-1.165-0.687-2.139-0.773c-1.006-0.089-1.811,0.047-2.415,0.409
				c-0.39,0.233-0.604,0.57-0.643,1.014c-0.037,0.405,0.104,0.768,0.421,1.086c0.404,0.405,1.43,0.879,3.075,1.426
				c1.648,0.548,2.854,1.068,3.623,1.565c0.769,0.495,1.348,1.132,1.738,1.908c0.39,0.777,0.538,1.707,0.441,2.789
				c-0.088,0.982-0.442,1.876-1.063,2.685c-0.622,0.808-1.449,1.376-2.482,1.705c-1.034,0.328-2.295,0.425-3.782,0.294
				c-2.166-0.193-3.783-0.84-4.855-1.945C145.267,31.971,144.703,30.452,144.647,28.517z"/>
			<path fill="#FDFCFD" d="M160.38,35.74l3.976-16.728l12.402,2.946l-0.673,2.831l-9.025-2.146l-0.881,3.709l8.398,1.995
				l-0.67,2.818l-8.398-1.995l-1.082,4.553l9.346,2.221l-0.67,2.818L160.38,35.74z"/>
			<path fill="#FDFCFD" d="M189.7,45.285l-3.5-1.418l0.075-4.183l-6.37-2.58l-2.782,3.086l-3.412-1.382l12.66-13.422l3.402,1.378
				L189.7,45.285z M186.33,36.581l0.198-6.803l-4.547,5.042L186.33,36.581z"/>
			<path fill="#FDFCFD" d="M190.75,45.958l8.867-14.731l6.261,3.768c1.574,0.947,2.638,1.769,3.191,2.462
				c0.555,0.695,0.842,1.508,0.863,2.443c0.022,0.935-0.23,1.837-0.754,2.709c-0.665,1.104-1.539,1.821-2.622,2.15
				c-1.084,0.33-2.329,0.199-3.733-0.393c0.417,0.762,0.7,1.495,0.848,2.195c0.148,0.7,0.233,1.837,0.254,3.41l0.068,3.958
				l-3.557-2.141l-0.221-4.5c-0.073-1.605-0.162-2.642-0.265-3.108c-0.102-0.468-0.276-0.851-0.524-1.151
				c-0.248-0.301-0.714-0.657-1.396-1.067l-0.604-0.363l-3.7,6.149L190.75,45.958z M198.841,39.247l2.201,1.324
				c1.427,0.858,2.354,1.334,2.782,1.428c0.427,0.093,0.83,0.053,1.209-0.121c0.378-0.173,0.699-0.482,0.967-0.923
				c0.298-0.496,0.407-0.975,0.325-1.439c-0.081-0.464-0.338-0.882-0.772-1.253c-0.221-0.178-0.935-0.63-2.14-1.355l-2.321-1.397
				L198.841,39.247z"/>
			<path fill="#FDFCFD" d="M217.434,56.986l1.893,2.981c-1.601,1.106-3.153,1.623-4.658,1.549c-1.505-0.073-2.965-0.702-4.379-1.888
				c-1.749-1.468-2.686-3.27-2.811-5.41c-0.124-2.14,0.684-4.246,2.422-6.319c1.838-2.192,3.833-3.421,5.982-3.684
				c2.149-0.265,4.146,0.378,5.992,1.925c1.611,1.352,2.521,2.925,2.729,4.722c0.127,1.066-0.102,2.251-0.686,3.556l-3.161-1.579
				c0.416-0.813,0.544-1.625,0.382-2.435c-0.163-0.81-0.599-1.511-1.305-2.104c-0.977-0.819-2.063-1.132-3.259-0.942
				c-1.196,0.191-2.452,1.073-3.769,2.642c-1.396,1.666-2.091,3.103-2.085,4.311c0.006,1.21,0.488,2.217,1.447,3.021
				c0.707,0.593,1.503,0.879,2.39,0.856C215.443,58.165,216.402,57.766,217.434,56.986z"/>
			<path fill="#FDFCFD" d="M217.608,65.676l12.953-11.305l2.282,2.616l-5.098,4.449l4.473,5.125l5.098-4.451l2.283,2.616
				l-12.953,11.306l-2.283-2.616l5.664-4.943l-4.473-5.124l-5.664,4.942L217.608,65.676z"/>
			<path fill="#FDFCFD" d="M231.91,83.922l14.661-8.98l1.813,2.959l-14.662,8.981L231.91,83.922z"/>
			<path fill="#FDFCFD" d="M235.347,89.303l15.548-7.339l1.442,3.054l-7.38,11.265l10.383-4.901l1.377,2.917l-15.547,7.339
				l-1.488-3.15l7.181-11.053l-10.14,4.785L235.347,89.303z"/>
			<path fill="#FDFCFD" d="M247.342,102.078l1.279,3.144c-1.029,0.518-1.71,1.15-2.041,1.898c-0.332,0.749-0.349,1.627-0.046,2.639
				c0.318,1.071,0.786,1.812,1.4,2.22c0.616,0.408,1.227,0.521,1.833,0.34c0.39-0.116,0.688-0.329,0.894-0.638
				c0.205-0.311,0.325-0.781,0.356-1.41c0.02-0.43-0.006-1.39-0.074-2.879c-0.088-1.915,0.082-3.328,0.512-4.238
				c0.604-1.282,1.56-2.117,2.863-2.506c0.839-0.251,1.695-0.247,2.568,0.012c0.872,0.258,1.632,0.779,2.28,1.56
				c0.65,0.782,1.163,1.805,1.54,3.072c0.617,2.068,0.627,3.76,0.031,5.075c-0.595,1.315-1.642,2.225-3.14,2.728l-1.138-3.284
				c0.805-0.394,1.323-0.881,1.554-1.459c0.232-0.579,0.208-1.337-0.07-2.273c-0.289-0.966-0.713-1.665-1.272-2.092
				c-0.36-0.276-0.754-0.351-1.181-0.224c-0.39,0.116-0.674,0.38-0.853,0.792c-0.228,0.525-0.292,1.654-0.191,3.386
				s0.062,3.046-0.116,3.943c-0.178,0.898-0.554,1.671-1.132,2.32c-0.577,0.649-1.387,1.129-2.429,1.439
				c-0.943,0.28-1.906,0.282-2.886,0.003c-0.981-0.278-1.815-0.838-2.502-1.677c-0.686-0.841-1.243-1.975-1.669-3.407
				c-0.621-2.083-0.616-3.826,0.015-5.23C244.358,103.929,245.563,102.845,247.342,102.078z"/>
			<path fill="#FDFCFD" d="M246.98,123.214l14.124-2.141l-0.766-5.044l2.876-0.436l2.048,13.508l-2.876,0.437l-0.763-5.033
				l-14.123,2.141L246.98,123.214z"/>
			<path fill="#FDFCFD" d="M248.194,133.433l17.167-0.938l0.19,3.466l-17.167,0.939L248.194,133.433z"/>
			<path fill="#FDFCFD" d="M248.431,143.691l14.272,0.574l0.205-5.098l2.906,0.116l-0.549,13.651l-2.906-0.115l0.205-5.086
				l-14.273-0.574L248.431,143.691z"/>
			<path fill="#FDFCFD" d="M264.816,157.016l-0.635,3.412l-9.154-1.703c-1.452-0.27-2.402-0.404-2.849-0.398
				c-0.719,0.016-1.339,0.262-1.86,0.732c-0.521,0.473-0.87,1.184-1.048,2.137c-0.18,0.969-0.118,1.736,0.188,2.303
				c0.304,0.564,0.734,0.951,1.292,1.158c0.559,0.207,1.506,0.436,2.844,0.686l9.35,1.74l-0.636,3.412l-8.877-1.652
				c-2.029-0.377-3.445-0.738-4.249-1.078s-1.447-0.811-1.932-1.414s-0.82-1.352-1.008-2.246c-0.187-0.895-0.156-2.01,0.093-3.346
				c0.3-1.615,0.714-2.805,1.242-3.568c0.528-0.766,1.136-1.336,1.82-1.707c0.687-0.373,1.371-0.578,2.052-0.609
				c1.011-0.043,2.461,0.113,4.353,0.465L264.816,157.016z"/>
			<path fill="#FDFCFD" d="M243.289,173.967l13.518,4.621l1.65-4.828l2.752,0.941l-4.42,12.928l-2.751-0.939l1.646-4.816
				l-13.517-4.621L243.289,173.967z"/>
			<path fill="#FDFCFD" d="M239.829,183.605l15.34,7.766l-5.758,11.373l-2.595-1.314l4.189-8.275l-3.4-1.723l-3.899,7.701
				l-2.584-1.307l3.898-7.703l-4.176-2.113l-4.338,8.57l-2.584-1.309L239.829,183.605z"/>
		</g>
		<g>
			<path fill="#FEFEFE" d="M102.561,260.258l4.449-16.605l3.354,0.898l-1.976,7.375l8.75-5.561l4.509,1.209l-7.986,4.793
				l3.877,11.904l-4.34-1.162l-2.477-9.018l-3.462,2.047l-1.345,5.02L102.561,260.258z"/>
			<path fill="#FEFEFE" d="M120.876,264.73l1.983-17.078l12.662,1.471l-0.335,2.891l-9.215-1.07l-0.439,3.785l8.573,0.996
				l-0.333,2.877l-8.574-0.994l-0.54,4.646l9.541,1.107l-0.335,2.877L120.876,264.73z"/>
			<path fill="#FEFEFE" d="M138.345,266.523l-0.666-17.182l5.191-0.201l3.572,11.598l2.627-11.838l5.204-0.201l0.666,17.18
				l-3.224,0.125l-0.524-13.523l-2.886,13.654l-3.339,0.131l-3.924-13.391l0.525,13.521L138.345,266.523z"/>
			<path fill="#FEFEFE" d="M160.073,265.15l-3.435-16.846l7.16-1.459c1.801-0.367,3.14-0.482,4.017-0.346
				c0.878,0.137,1.641,0.541,2.288,1.215c0.648,0.674,1.074,1.508,1.276,2.504c0.259,1.266,0.1,2.385-0.477,3.359
				c-0.574,0.977-1.58,1.721-3.015,2.236c0.823,0.277,1.526,0.627,2.11,1.041c0.582,0.416,1.414,1.197,2.494,2.342l2.726,2.867
				l-4.068,0.83l-3.206-3.166c-1.141-1.131-1.906-1.836-2.298-2.111c-0.391-0.275-0.779-0.439-1.165-0.492s-0.97,0-1.751,0.16
				l-0.689,0.139l1.434,7.033L160.073,265.15z M161.493,254.736l2.517-0.514c1.633-0.334,2.637-0.609,3.015-0.83
				s0.648-0.523,0.809-0.906c0.161-0.385,0.189-0.828,0.087-1.334c-0.116-0.568-0.359-0.994-0.733-1.281
				c-0.374-0.285-0.846-0.42-1.416-0.398c-0.283,0.016-1.114,0.166-2.494,0.447l-2.654,0.541L161.493,254.736z"/>
			<path fill="#FEFEFE" d="M177.927,260.988l-5.189-16.391l3.311-1.047l5.188,16.391L177.927,260.988z"/>
		</g>
		<g>
			<polygon fill="#FEFEFE" points="58.929,221.451 72.877,226.004 77.431,239.955 63.482,235.4 			"/>
		</g>
		<g>
			<polygon fill="#FEFEFE" points="224.47,221.463 210.521,226.016 205.968,239.967 219.915,235.41 			"/>
		</g>
	</g>
</g>
</svg>
